#!OML:ASF E:\emotionWalksFemale\Project 1\Capture day 1\Session 1\Female1.ASF
:FULLY-SPECIFIED
:DEGREES
274
root 10.2676 15.6083 11.4396 17.0265 -81.4546 -12.2579
lowerback 5.77763 0.843263 -0.250355
upperback -4.91128 1.07569 0.125151
thorax -8.42112 0.527166 0.1355
lowerneck -7.1031 -5.65677 -8.02925
upperneck 10.3705 -7.38985 5.52156
head 4.77775 -3.6532 2.52064
rclavicle -1.69588e-014 -5.1684e-015
rhumerus -53.1204 8.19378 -81.0532
rradius 36.6864
rwrist 26.13
rhand -2.15025 -45.9993
rfingers 7.12502
rthumb 23.5293 -434.58
lclavicle -1.69588e-014 -5.1684e-015
lhumerus -49.2608 0.803465 74.884
lradius 36.5614
lwrist -11.3214
lhand 12.4326 -27.1317
lfingers 7.12502
lthumb 37.4298 -1.17954
rfemur -1.91032 18.0417 29.2845
rtibia 11.461
rfoot -25.5825 -29.8351
rtoes -3.27986
lfemur -14.1002 -21.5852 -21.8743
ltibia 30.6854
lfoot -21.2217 15.3619
ltoes -21.936
275
root 10.2729 15.6047 11.4368 15.8961 -81.8119 -11.0647
lowerback 5.68889 0.928622 -0.202273
upperback -5.04708 1.18751 0.0709274
thorax -8.5147 0.575578 0.0371887
lowerneck -6.73798 -5.65034 -8.35851
upperneck 10.2233 -7.38041 5.62489
head 4.68715 -3.66163 2.6167
rclavicle -6.53505e-015 2.5842e-015
rhumerus -53.273 7.73582 -80.7029
rradius 36.8787
rwrist 25.7675
rhand -1.57453 -46.0267
rfingers 7.12502
rthumb 24.0814 -434.536
lclavicle -6.53505e-015 2.5842e-015
lhumerus -49.8194 0.852949 74.2855
lradius 37.2272
lwrist -10.0457
lhand 13.7835 -26.2823
lfingers 7.12502
lthumb 38.7054 -0.678535
rfemur -1.90996 19.63 29.1096
rtibia 11.5744
rfoot -26.0395 -30.6689
rtoes -1.49965
lfemur -13.7224 -21.8468 -22.0137
ltibia 30.0811
lfoot -21.8014 15.2882
ltoes -20.0361
276
root 10.278 15.6051 11.4287 14.7086 -82.2543 -9.71851
lowerback 5.49382 1.02661 -0.336711
upperback -5.13179 1.30221 0.0510706
thorax -8.49518 0.638047 0.0795939
lowerneck -6.61344 -5.61248 -8.50832
upperneck 10.1123 -7.31649 5.61397
head 4.63305 -3.63789 2.6462
rclavicle -3.72721e-017 3.18055e-015
rhumerus -53.4567 8.0032 -80.7637
rradius 37.3812
rwrist 24.5923
rhand -1.08009 -46.6883
rfingers 7.12502
rthumb 24.5554 -435.134
lclavicle -3.72721e-017 3.18055e-015
lhumerus -50.1429 1.04598 73.5822
lradius 37.717
lwrist -9.22649
lhand 15.1609 -26.2099
lfingers 7.12502
lthumb 40.0031 -0.984833
rfemur -2.13824 20.9291 28.8431
rtibia 11.8291
rfoot -26.2311 -31.2516
rtoes -0.305774
lfemur -13.46 -22.0875 -22.0928
ltibia 29.4294
lfoot -22.6673 14.7334
ltoes -15.7224
277
root 10.2851 15.5969 11.4247 13.2972 -82.623 -8.30852
lowerback 5.44314 1.05505 -0.402398
upperback -5.06639 1.3351 0.0451725
thorax -8.3961 0.658428 0.107652
lowerneck -6.73879 -5.47794 -8.51887
upperneck 9.96112 -7.10151 5.51358
head 4.58903 -3.53384 2.63089
rclavicle -2.89356e-014 2.38542e-015
rhumerus -53.3717 8.12424 -80.8033
rradius 37.7785
rwrist 23.4957
rhand -0.891265 -47.1262
rfingers 7.12502
rthumb 24.7364 -435.547
lclavicle -2.89356e-014 2.38542e-015
lhumerus -50.3186 1.43016 72.8697
lradius 38.2232
lwrist -8.45878
lhand 14.8887 -26.5781
lfingers 7.12502
lthumb 39.7468 -1.27616
rfemur -2.24035 21.711 28.6115
rtibia 12.1029
rfoot -26.4926 -31.503
rtoes 0.521304
lfemur -12.9959 -22.4139 -22.2518
ltibia 28.7026
lfoot -22.9719 14.7222
ltoes -16.3302
278
root 10.2927 15.5894 11.4323 11.6677 -82.97 -6.75059
lowerback 5.48511 1.11467 -0.203336
upperback -4.99983 1.42818 -0.0495323
thorax -8.34146 0.68947 -0.115555
lowerneck -6.72262 -5.37209 -8.67141
upperneck 9.72738 -6.93788 5.5749
head 4.5106 -3.45352 2.68855
rclavicle 1.79652e-014 9.0447e-015
rhumerus -53.218 7.6149 -80.4893
rradius 37.9939
rwrist 22.8359
rhand -0.991045 -47.349
rfingers 7.12502
rthumb 24.6408 -435.783
lclavicle 1.79652e-014 9.0447e-015
lhumerus -50.4836 1.42825 72.4191
lradius 38.7343
lwrist -7.35406
lhand 10.5462 -26.7595
lfingers 7.12502
lthumb 35.6442 -0.356365
rfemur -2.21861 21.6508 28.3337
rtibia 12.1904
rfoot -25.6237 -31.6475
rtoes -1.89259
lfemur -12.4034 -22.9682 -22.5123
ltibia 27.988
lfoot -23.5183 14.4804
ltoes -12.9169
